<svg width="193" height="179" viewBox="0 0 193 179" fill="none" xmlns="http://www.w3.org/2000/svg">
<rect x="87.8557" y="75" width="136.951" height="20" rx="10" transform="rotate(40 87.8557 75)" fill="#373333"/>
<circle cx="75" cy="75" r="75" fill="#373333"/>
<circle cx="75" cy="75" r="60" fill="#E0F5CE"/>
<path d="M46.075 103.75C42.075 103.75 39.025 102.625 36.925 100.375C34.825 98.075 33.775 94.8 33.775 90.55V50.5H42.025V91.15C42.025 92.95 42.375 94.25 43.075 95.05C43.825 95.85 44.875 96.25 46.225 96.25C47.575 96.25 48.6 95.85 49.3 95.05C50.05 94.25 50.425 92.95 50.425 91.15V50.5H58.375V90.55C58.375 94.8 57.325 98.075 55.225 100.375C53.125 102.625 50.075 103.75 46.075 103.75ZM70.7008 58H62.0758V50.5H87.5758V58H78.9508V103H70.7008V58ZM91.5701 50.5H104.17C108.27 50.5 111.345 51.6 113.395 53.8C115.445 56 116.47 59.225 116.47 63.475V90.025C116.47 94.275 115.445 97.5 113.395 99.7C111.345 101.9 108.27 103 104.17 103H91.5701V50.5ZM104.02 95.5C105.37 95.5 106.395 95.1 107.095 94.3C107.845 93.5 108.22 92.2 108.22 90.4V63.1C108.22 61.3 107.845 60 107.095 59.2C106.395 58.4 105.37 58 104.02 58H99.8201V95.5H104.02Z" fill="#FFB673"/>
</svg>
