<svg width="71" height="97" viewBox="0 0 71 97" fill="none" xmlns="http://www.w3.org/2000/svg">
<mask id="path-1-inside-1_72_2" fill="white">
<path fill-rule="evenodd" clip-rule="evenodd" d="M0 97H70.9301C70.9301 63.0152 55.0518 35.4651 35.4651 35.4651C15.8783 35.4651 3.8022e-05 63.0152 0 97Z"/>
</mask>
<path fill-rule="evenodd" clip-rule="evenodd" d="M0 97H70.9301C70.9301 63.0152 55.0518 35.4651 35.4651 35.4651C15.8783 35.4651 3.8022e-05 63.0152 0 97Z" fill="#FFB673"/>
<path d="M0 97L-5 97L-5.00001 102H0V97ZM70.9301 97V102H75.9301L75.9301 97L70.9301 97ZM0 102H70.9301V92H0V102ZM35.4651 40.4651C42.7115 40.4651 50.227 45.603 56.2106 55.985C62.1172 66.2334 65.9301 80.7236 65.9301 97L75.9301 97C75.9301 79.2916 71.8039 63.0143 64.8746 50.9915C58.0224 39.1023 47.8055 30.4651 35.4651 30.4651V40.4651ZM5 97C5.00002 80.7236 8.81291 66.2334 14.7195 55.985C20.7031 45.603 28.2187 40.4651 35.4651 40.4651V30.4651C23.1247 30.4651 12.9077 39.1023 6.05548 50.9915C-0.873734 63.0143 -4.99998 79.2916 -5 97L5 97Z" fill="black" mask="url(#path-1-inside-1_72_2)"/>
<path d="M61.5 28.5C61.5 42.8594 49.8594 54.5 35.5 54.5C21.1406 54.5 9.5 42.8594 9.5 28.5C9.5 14.1406 21.1406 2.5 35.5 2.5C49.8594 2.5 61.5 14.1406 61.5 28.5Z" fill="white" stroke="black" stroke-width="5"/>
</svg>
