<svg width="22" height="29" viewBox="0 0 22 29" fill="none" xmlns="http://www.w3.org/2000/svg">
<mask id="path-1-inside-1_38_5" fill="white">
<path fill-rule="evenodd" clip-rule="evenodd" d="M0 29H21.2059C21.2059 18.8396 16.4588 10.603 10.603 10.603C4.74711 10.603 8.31732e-06 18.8396 0 29Z"/>
</mask>
<path fill-rule="evenodd" clip-rule="evenodd" d="M0 29H21.2059C21.2059 18.8396 16.4588 10.603 10.603 10.603C4.74711 10.603 8.31732e-06 18.8396 0 29Z" fill="#FFB673"/>
<path d="M0 29L-3 29L-3 32H0V29ZM21.2059 29V32H24.2059L24.2059 29L21.2059 29ZM0 32H21.2059V26H0V32ZM10.603 13.603C12.0027 13.603 13.843 14.6123 15.5012 17.4894C17.1131 20.2863 18.2059 24.3494 18.2059 29L24.2059 29C24.2059 23.4902 22.9251 18.3548 20.6996 14.4933C18.5202 10.7119 15.0591 7.60297 10.603 7.60297V13.603ZM3 29C3 24.3494 4.09277 20.2863 5.70475 17.4894C7.3629 14.6123 9.20323 13.603 10.603 13.603V7.60297C6.14684 7.60297 2.6857 10.7119 0.506327 14.4933C-1.71921 18.3548 -3 23.4902 -3 29L3 29Z" fill="black" mask="url(#path-1-inside-1_38_5)"/>
<path d="M17.5 8.5C17.5 12.366 14.366 15.5 10.5 15.5C6.63401 15.5 3.5 12.366 3.5 8.5C3.5 4.63401 6.63401 1.5 10.5 1.5C14.366 1.5 17.5 4.63401 17.5 8.5Z" fill="white" stroke="black" stroke-width="3"/>
</svg>
